<?xml version="1.0" encoding="UTF-8"?>
<svg version="1.1" xmlns="http://www.w3.org/2000/svg" width="512" height="512">
<path d="M0 0 C1.94508264 -0.00761181 1.94508264 -0.00761181 3.92945987 -0.0153774 C5.38218355 -0.01597913 6.83490728 -0.01647819 8.28763103 -0.01688576 C9.82022056 -0.02089877 11.35280901 -0.02533672 12.88539618 -0.03016531 C17.11260911 -0.04215444 21.33981061 -0.04778466 25.56703722 -0.05234647 C30.11997679 -0.05829363 34.67290262 -0.06990559 39.22583294 -0.08063698 C50.2284497 -0.10518001 61.23107102 -0.11979023 72.23370674 -0.13269705 C75.33956536 -0.13640737 78.44542352 -0.14038073 81.55128169 -0.14444971 C100.82476402 -0.16968287 120.09824704 -0.19174307 139.37174225 -0.20417786 C143.8378204 -0.20710771 148.30389852 -0.21006935 152.76997662 -0.21308327 C153.88004276 -0.21382932 154.9901089 -0.21457537 156.1338134 -0.21534403 C174.12669982 -0.22800471 192.11948758 -0.26123634 210.11232785 -0.3028851 C228.57116855 -0.3452635 247.02995868 -0.36886809 265.48884791 -0.37409842 C275.85856793 -0.37751702 286.22813373 -0.38932511 296.59780598 -0.42220116 C305.42688262 -0.45014652 314.25577344 -0.46122528 323.08489088 -0.4500057 C327.59189075 -0.44480501 332.09850115 -0.44779679 336.60544491 -0.47247124 C340.72920598 -0.49486002 344.85229549 -0.49430552 348.97606751 -0.47526737 C350.47003942 -0.4724527 351.96405588 -0.47814686 353.45795581 -0.4930803 C355.48485011 -0.51210728 357.51197761 -0.49744406 359.53889465 -0.48101807 C361.22949209 -0.48305286 361.22949209 -0.48305286 362.954243 -0.48512876 C366.91027596 0.33419435 368.40678753 2.08378279 370.95820904 5.13701439 C372.53615096 8.29289823 372.09892136 11.67861134 372.09243011 15.14380074 C372.09478234 15.98512094 372.09713458 16.82644114 372.09955809 17.6932559 C372.10627287 20.5432348 372.10578912 23.39316836 372.10538006 26.24315453 C372.10867714 28.29475577 372.11240237 30.34635637 372.11652154 32.39795613 C372.12656733 38.05983848 372.13026246 43.72171023 372.13291085 49.38360023 C372.13680625 55.48053758 372.14638507 61.57746646 372.15512371 67.67439842 C372.17397392 81.71339846 372.18414722 95.75239656 372.19258439 109.7914057 C372.19678854 116.72612087 372.20201083 123.66083516 372.20726892 130.5955496 C372.22516025 154.32496953 372.24015724 178.05438971 372.24758911 201.78381538 C372.24806387 203.2740081 372.24853976 204.76420082 372.24901677 206.25439353 C372.24925315 206.99340918 372.24948953 207.73242483 372.24973306 208.4938349 C372.25093429 212.23817598 372.25214973 215.98251706 372.25337505 219.72685814 C372.2536152 220.46993947 372.25385535 221.21302081 372.25410278 221.97861976 C372.2619977 246.07723964 372.28543292 270.17581033 372.317931 294.27440872 C372.35221185 319.74141173 372.37193862 345.20838595 372.37523335 370.67541242 C372.3756509 373.46993781 372.37613047 376.26446319 372.37665653 379.05898857 C372.37677972 379.74709997 372.37690292 380.43521137 372.37702984 381.14417463 C372.37936403 392.22837613 372.39503614 403.3125206 372.41549838 414.39670176 C372.43573224 425.53367947 372.44091125 436.67058957 372.43172774 447.80758855 C372.427168 453.84371024 372.4291663 459.87964637 372.44848919 465.91574287 C372.46601421 471.43774546 372.46521026 476.95942565 372.4495919 482.48143116 C372.44719954 484.48281466 372.45162285 486.48421988 372.46342055 488.48557004 C372.47843354 491.19973044 372.46894074 493.91273278 372.45319366 496.62686348 C372.46341587 497.40949373 372.47363808 498.19212399 372.48417005 498.99847031 C372.41827782 504.17848914 371.25291091 507.15546178 367.95820904 511.13701439 C365.20509941 512.5135692 362.99951396 512.26765053 359.91641808 512.27402878 C358.61969632 512.27910332 357.32297456 512.28417786 355.98695821 512.28940618 C354.53423452 512.29000791 353.08151079 512.29050697 351.62878704 512.29091454 C350.09619752 512.29492755 348.56360906 512.2993655 347.03102189 512.30419409 C342.80380896 512.31618322 338.57660746 512.32181344 334.34938085 512.32637525 C329.79644129 512.33232241 325.24351546 512.34393437 320.69058514 512.35466576 C309.68796837 512.37920879 298.68534706 512.39381901 287.68271133 512.40672582 C284.57685272 512.41043615 281.47099455 512.4144095 278.36513638 512.41847849 C259.09165405 512.44371165 239.81817104 512.46577185 220.54467583 512.47820663 C216.07859768 512.48113649 211.61251955 512.48409813 207.14644146 512.48711205 C206.03637532 512.4878581 204.92630918 512.48860415 203.78260467 512.4893728 C185.78971825 512.50203348 167.79693049 512.53526512 149.80409022 512.57691388 C131.34524952 512.61929228 112.8864594 512.64289687 94.42757016 512.6481272 C84.05785014 512.6515458 73.68828434 512.66335389 63.3186121 512.69622993 C54.48953546 512.7241753 45.66064464 512.73525406 36.8315272 512.72403447 C32.32452732 512.71883379 27.81791693 512.72182557 23.31097317 512.74650002 C19.18721209 512.7688888 15.06412259 512.7683343 10.94035057 512.74929614 C9.44637865 512.74648148 7.95236219 512.75217563 6.45846226 512.76710908 C4.43156796 512.78613606 2.40444047 512.77147284 0.37752342 512.75504684 C-0.74954153 512.75640337 -1.87660649 512.7577599 -3.03782493 512.75915754 C-6.99385788 511.93983443 -8.49036945 510.19024599 -11.04179096 507.13701439 C-12.61973288 503.98113055 -12.18250329 500.59541744 -12.17601204 497.13022804 C-12.17836427 496.28890784 -12.1807165 495.44758763 -12.18314001 494.58077288 C-12.18985479 491.73079398 -12.18937104 488.88086042 -12.18896198 486.03087425 C-12.19225906 483.979273 -12.1959843 481.92767241 -12.20010346 479.87607265 C-12.21014926 474.2141903 -12.21384439 468.55231855 -12.21649277 462.89042854 C-12.22038818 456.7934912 -12.229967 450.69656232 -12.23870564 444.59963036 C-12.25755584 430.56063031 -12.26772915 416.52163221 -12.27616632 402.48262308 C-12.28037046 395.54790791 -12.28559275 388.61319361 -12.29085084 381.67847918 C-12.30874217 357.94905925 -12.32373916 334.21963907 -12.33117104 310.49021339 C-12.3316458 309.00002068 -12.33212168 307.50982796 -12.3325987 306.01963525 C-12.33283507 305.2806196 -12.33307145 304.54160394 -12.33331499 303.78019388 C-12.33451621 300.0358528 -12.33573165 296.29151172 -12.33695698 292.54717064 C-12.33719713 291.8040893 -12.33743728 291.06100797 -12.3376847 290.29540902 C-12.34557963 266.19678914 -12.36901485 242.09821845 -12.40151292 217.99962005 C-12.43579378 192.53261705 -12.45552055 167.06564283 -12.45881528 141.59861636 C-12.45923283 138.80409096 -12.45971239 136.00956559 -12.46023846 133.21504021 C-12.46036165 132.52692881 -12.46048484 131.83881741 -12.46061176 131.12985414 C-12.46294595 120.04565265 -12.47861806 108.96150818 -12.4990803 97.87732702 C-12.51931416 86.74034931 -12.52449317 75.60343921 -12.51530967 64.46644023 C-12.51074992 58.43031854 -12.51274823 52.39438241 -12.53207111 46.3582859 C-12.54959613 40.83628332 -12.54879218 35.31460312 -12.53317382 29.79259762 C-12.53078147 27.79121411 -12.53520478 25.7898089 -12.54700247 23.78845873 C-12.56201547 21.07429834 -12.55252266 18.361296 -12.53677559 15.6471653 C-12.5469978 14.86453505 -12.55722 14.08190479 -12.56775197 13.27555847 C-12.50185974 8.09553964 -11.33649283 5.118567 -8.04179096 1.13701439 C-5.28868134 -0.23954042 -3.08309589 0.00637825 0 0 Z " fill="#D7E1F0" transform="translate(76.04179096221924,-0.13701438903808594)"/>
<path d="M0 0 C0.86660625 -0.00779995 1.73321251 -0.01559991 2.62607956 -0.02363622 C5.52361589 -0.04354529 8.41983724 -0.02779598 11.31738281 -0.01205444 C13.3971839 -0.01883104 15.47697898 -0.0277344 17.5567627 -0.03860474 C23.20140798 -0.06139943 28.84559635 -0.05256079 34.49024963 -0.03670931 C40.39715813 -0.02405134 46.30402747 -0.03579015 52.2109375 -0.04364014 C62.13060531 -0.05273696 72.05008701 -0.04074778 81.96972656 -0.01693726 C93.43855581 0.01027393 104.90694064 0.0014598 116.37575912 -0.02606928 C126.22221557 -0.04875827 136.06853822 -0.05196141 145.91501236 -0.03887594 C151.79607681 -0.03108034 157.67693236 -0.03004304 163.5579834 -0.04655838 C169.08703925 -0.06100063 174.61552205 -0.0509853 180.14451599 -0.0220871 C182.17381336 -0.01547506 184.20315894 -0.01737593 186.23243713 -0.02840042 C189.00261455 -0.04206262 191.77095529 -0.02493213 194.54101562 0 C195.74598253 -0.01673041 195.74598253 -0.01673041 196.97529221 -0.03379881 C202.71727307 0.0664631 205.26921489 1.4949076 209.27050781 5.63491821 C210.02568054 7.68313599 210.02568054 7.68313599 210.03100586 9.70327759 C210.04669113 10.4675708 210.0623764 11.23186401 210.07853699 12.01931763 C210.06325455 12.83090332 210.04797211 13.64248901 210.03222656 14.47866821 C210.03727959 15.74873718 210.03727959 15.74873718 210.04243469 17.04446411 C210.04213648 18.82972302 210.02694659 20.6150339 209.99780273 22.40005493 C209.95812196 25.12707327 209.97710023 27.84922601 210.00292969 30.57632446 C209.99537003 32.31462451 209.98441601 34.0529138 209.96972656 35.79116821 C209.97671066 36.60275391 209.98369476 37.4143396 209.9908905 38.2505188 C209.97190201 39.01481201 209.95291351 39.77910522 209.93334961 40.56655884 C209.92635544 41.23320557 209.91936127 41.89985229 209.91215515 42.58670044 C208.8534822 45.96611562 207.00972208 47.43519507 204.27050781 49.63491821 C201.18686947 50.12694231 198.65827426 50.31199898 195.57861328 50.26983643 C194.26667653 50.28153636 194.26667653 50.28153636 192.92823601 50.29347265 C189.99762724 50.31341578 187.0683137 50.29761902 184.13769531 50.28189087 C182.0367151 50.28866595 179.93574083 50.29756846 177.83477783 50.30844116 C172.12816078 50.33125388 166.42199522 50.32238978 160.71537018 50.30654573 C154.74659498 50.29389709 148.77785873 50.30562397 142.80908203 50.31347656 C132.78508556 50.32257611 122.76127321 50.31057707 112.73730469 50.28677368 C101.14407788 50.25956198 89.55129072 50.26837592 77.95807457 50.29590571 C68.00889507 50.31858694 58.05984801 50.32180164 48.11065102 50.30871236 C42.16644712 50.30091249 36.22244994 50.29989117 30.27825928 50.31639481 C24.69012598 50.33082579 19.10256014 50.32084238 13.51448822 50.29192352 C11.46219577 50.28530545 9.40985566 50.28722263 7.35758209 50.29823685 C4.5585416 50.3118752 1.76132611 50.29479739 -1.03759766 50.26983643 C-1.85228579 50.28099003 -2.66697392 50.29214364 -3.50634956 50.30363524 C-7.61444074 50.23243624 -9.48646745 49.83007897 -12.73263264 47.22324944 C-14.69982805 44.6733689 -15.35944426 43.70143044 -15.39233398 40.56655884 C-15.42081673 39.42011902 -15.42081673 39.42011902 -15.44987488 38.2505188 C-15.44289078 37.43893311 -15.43590668 36.62734741 -15.42871094 35.79116821 C-15.43586624 34.94445557 -15.44302155 34.09774292 -15.45039368 33.22537231 C-15.45815723 31.44018606 -15.45318692 29.65490457 -15.4362793 27.86978149 C-15.41704589 25.14253306 -15.45645529 22.42037817 -15.50097656 19.69351196 C-15.50126693 17.95522769 -15.49812672 16.21693875 -15.49121094 14.47866821 C-15.50649338 13.66708252 -15.52177582 12.85549683 -15.53752136 12.01931763 C-15.52183609 11.25502441 -15.50615082 10.4907312 -15.48999023 9.70327759 C-15.48823288 9.03663086 -15.48647552 8.36998413 -15.48466492 7.68313599 C-12.87008926 0.5917513 -6.53862504 -0.09078581 0 0 Z " fill="#5867CB" transform="translate(158.7294921875,147.36508178710938)"/>
<path d="M0 0 C4.95 0 9.9 0 15 0 C21.10905463 6.10905463 21.10905463 6.10905463 21.13871691 12.60680175 C21.13723328 13.39879667 21.13574966 14.19079158 21.13422108 15.00678635 C21.13657331 15.84810655 21.13892554 16.68942676 21.14134905 17.55624151 C21.14806383 20.40622041 21.14758008 23.25615397 21.14717102 26.10614014 C21.1504681 28.15774138 21.15419334 30.20934198 21.1583125 32.26094174 C21.16835829 37.92282409 21.17205342 43.58469584 21.17470181 49.24658585 C21.17859722 55.34352319 21.18817604 61.44045207 21.19691467 67.53738403 C21.21576488 81.57638408 21.22593818 95.61538218 21.23437535 109.65439131 C21.2385795 116.58910648 21.24380179 123.52382077 21.24905988 130.45853521 C21.26695121 154.18795514 21.2819482 177.91737532 21.28938007 201.64680099 C21.28985483 203.13699371 21.29033072 204.62718643 21.29080774 206.11737914 C21.2911623 207.22590262 21.2911623 207.22590262 21.29152403 208.35682051 C21.29272525 212.10116159 21.29394069 215.84550267 21.29516602 219.58984375 C21.29540617 220.33292508 21.29564632 221.07600642 21.29589374 221.84160537 C21.30378866 245.94022525 21.32722388 270.03879594 21.35972196 294.13739434 C21.39400281 319.60439734 21.41372959 345.07137156 21.41702431 370.53839803 C21.41744187 373.33292342 21.41792143 376.1274488 21.41844749 378.92197418 C21.41857069 379.61008558 21.41869388 380.29819698 21.4188208 381.00716024 C21.42115499 392.09136174 21.4368271 403.17550621 21.45728934 414.25968737 C21.4775232 425.39666508 21.48270221 436.53357518 21.47351871 447.67057416 C21.46895896 453.70669585 21.47095726 459.74263198 21.49028015 465.77872849 C21.50780517 471.30073107 21.50700122 476.82241126 21.49138286 482.34441677 C21.48899051 484.34580027 21.49341381 486.34720549 21.50521151 488.34855565 C21.52022451 491.06271605 21.5107317 493.77571839 21.49498463 496.48984909 C21.50520683 497.27247934 21.51542904 498.0551096 21.52596101 498.86145592 C21.46006878 504.04147475 20.29470187 507.01844739 17 511 C11.92281793 513.53859104 5.67646212 512 0 512 C0 343.04 0 174.08 0 0 Z " fill="#B9CBEA" transform="translate(427,0)"/>
<path d="M0 0 C1.21621191 -0.00445668 1.21621191 -0.00445668 2.45699376 -0.0090034 C5.18920954 -0.01771405 7.92138164 -0.01920064 10.65361023 -0.02069092 C12.60635981 -0.02531743 14.55910847 -0.03034186 16.51185608 -0.03573608 C21.82801918 -0.04887837 27.14416964 -0.05530862 32.46034646 -0.05974674 C35.77943547 -0.06267457 39.098521 -0.06677883 42.41760826 -0.07125092 C52.79572513 -0.08493077 63.17383407 -0.09459499 73.55195934 -0.09845281 C85.54405649 -0.10293467 97.53603972 -0.12048649 109.52810222 -0.1494534 C118.78929292 -0.17104959 128.05045152 -0.18115599 137.31166714 -0.18249393 C142.84676212 -0.18354345 148.38175009 -0.18948254 153.91681862 -0.20731354 C159.12309885 -0.22375851 164.32919122 -0.22596711 169.53548813 -0.21717453 C171.44750025 -0.21640223 173.35952232 -0.22077215 175.27150917 -0.23063278 C177.87979917 -0.24329658 180.48741822 -0.23750595 183.09570312 -0.22705078 C183.85407339 -0.23510719 184.61244365 -0.24316359 185.39379483 -0.25146413 C189.84269474 -0.20969632 192.70437689 0.38355703 196.23832703 3.14044189 C197.6429044 5.94959663 197.4872786 8.02854724 197.23832703 11.14044189 C195.45848298 14.2763576 194.71524496 14.98146925 191.23832703 16.14044189 C188.58745915 16.24051462 185.9627758 16.28387979 183.31170654 16.28088379 C182.49525506 16.28385491 181.67880358 16.28682603 180.83761114 16.28988719 C178.09234794 16.29858285 175.34712831 16.30008316 172.60185242 16.30157471 C170.63748074 16.30620218 168.67310996 16.31122675 166.70874023 16.31661987 C161.36584484 16.32975071 156.02296201 16.3361899 150.680053 16.34063053 C147.34438294 16.34355952 144.00871634 16.34766394 140.67304802 16.3521347 C130.24314485 16.36581003 119.81324955 16.37547711 109.38333803 16.3793366 C97.33068064 16.38382075 85.27813647 16.40138508 73.22551352 16.43033719 C63.91676031 16.45192464 54.60803902 16.46203927 45.29926103 16.46337771 C39.73570847 16.46442764 34.17226232 16.47037555 28.60873604 16.48819733 C23.37782264 16.50462777 18.14709625 16.50685805 12.91616631 16.49805832 C10.99405798 16.4972853 9.0719398 16.50166531 7.14985657 16.51151657 C4.53032288 16.5241575 1.91145944 16.51840242 -0.70806885 16.50793457 C-1.85480675 16.52001918 -1.85480675 16.52001918 -3.02471107 16.53234792 C-6.22213247 16.50236682 -8.41400297 16.33916307 -11.21814823 14.73637009 C-13.54726843 12.32817508 -13.66928678 10.31978837 -13.93745422 7.07794189 C-13.76167297 5.14044189 -13.76167297 5.14044189 -11.94917297 2.70294189 C-7.95663368 -0.14887189 -4.76570595 -0.00539747 0 0 Z " fill="#A3BAE2" transform="translate(203.7616729736328,378.85955810546875)"/>
<path d="M0 0 C1.22239681 -0.00852488 1.22239681 -0.00852488 2.4694885 -0.01722199 C5.19212784 -0.03011065 7.91327621 -0.00734879 10.63583374 0.0153656 C12.59079805 0.01350127 14.54576131 0.00946404 16.50071716 0.00341797 C21.80438427 -0.0065574 27.10751703 0.01461394 32.41110659 0.04189801 C37.95991265 0.06572461 43.50870805 0.06278303 49.05755615 0.0632019 C58.37361704 0.0678298 67.68947354 0.09147256 77.00546265 0.12767029 C87.78121045 0.16942811 98.55677426 0.18698659 109.33259833 0.19029003 C120.80028512 0.19388752 132.26790557 0.2127578 143.73556471 0.23741031 C147.04273092 0.24364291 150.34989209 0.24727669 153.65706253 0.25044441 C158.84944471 0.25633892 164.04169503 0.27263518 169.23402214 0.29704857 C171.14160455 0.30449766 173.04920356 0.30856108 174.95680046 0.30902863 C177.55637923 0.31028364 180.15560869 0.32380769 182.75512695 0.34057617 C183.89295889 0.33695355 183.89295889 0.33695355 185.05377734 0.33325773 C188.74777851 0.37067968 191.69344421 0.41329089 194.75057983 2.61473083 C197.07637084 6.10341735 197.16923441 7.51191602 196.75057983 11.61473083 C194.97073579 14.75064654 194.22749777 15.45575819 190.75057983 16.61473083 C188.09971196 16.71480356 185.47502861 16.75816873 182.82395935 16.75517273 C182.00750787 16.75814385 181.19105638 16.76111497 180.34986395 16.76417613 C177.60460075 16.77287179 174.85938112 16.7743721 172.11410522 16.77586365 C170.14973355 16.78049112 168.18536277 16.78551569 166.22099304 16.79090881 C160.87809765 16.80403965 155.53521482 16.81047884 150.1923058 16.81491947 C146.85663575 16.81784846 143.52096915 16.82195288 140.18530083 16.82642365 C129.75539766 16.84009897 119.32550236 16.84976605 108.89559084 16.85362554 C96.84293345 16.85810969 84.79038928 16.87567402 72.73776633 16.90462613 C63.42901311 16.92621358 54.12029183 16.93632821 44.81151384 16.93766665 C39.24796128 16.93871658 33.68451513 16.94466449 28.12098885 16.96248627 C22.89007545 16.97891671 17.65934905 16.98114699 12.42841911 16.97234726 C10.50631079 16.97157424 8.58419261 16.97595425 6.66210938 16.98580551 C4.04257569 16.99844644 1.42371225 16.99269136 -1.19581604 16.98222351 C-2.34255394 16.99430812 -2.34255394 16.99430812 -3.51245826 17.00663686 C-6.70990405 16.97665554 -8.89940281 16.8154659 -11.70150089 15.20846176 C-13.49701395 13.35980936 -13.98976586 12.27450412 -14.37442017 9.73973083 C-14.50074829 9.08230896 -14.62707642 8.42488708 -14.75723267 7.74754333 C-14.06417291 4.83669237 -12.35693312 3.51815656 -10.07377172 1.69391239 C-6.89530169 -0.18628785 -3.57686969 -0.06261105 0 0 Z " fill="#A3BAE2" transform="translate(204.24942016601563,303.38526916503906)"/>
<path d="M0 0 C0.82955657 -0.00623996 1.65911313 -0.01247993 2.51380777 -0.01890898 C5.29770103 -0.03488303 8.08072404 -0.02221766 10.86462402 -0.00964355 C12.85870373 -0.01506271 14.85277944 -0.02218421 16.84684753 -0.03088379 C22.26622744 -0.04914451 27.68530331 -0.0420382 33.10468864 -0.02936745 C38.77097276 -0.01925405 44.43723051 -0.0286285 50.10351562 -0.03491211 C59.61979862 -0.04219335 69.13595752 -0.03258827 78.65222168 -0.0135498 C89.66088827 0.00821978 100.66925855 0.00116875 111.67791796 -0.02085543 C121.12259476 -0.0389958 130.56718227 -0.0415744 140.01187086 -0.03110075 C145.65589729 -0.02485834 151.29978436 -0.02405075 156.94380188 -0.0372467 C162.2495037 -0.04878471 167.55482278 -0.04081683 172.86048317 -0.01766968 C174.80999427 -0.01237164 176.75953746 -0.01391499 178.70903587 -0.02272034 C181.36595061 -0.03361625 184.02163117 -0.01998484 186.6784668 0 C187.45394946 -0.00892289 188.22943212 -0.01784577 189.02841425 -0.02703905 C192.52001462 0.02406884 194.47961694 0.23938708 197.31412506 2.35608673 C198.8392334 4.50793457 198.8392334 4.50793457 199.4017334 7.44543457 C198.6337433 11.62671397 197.15810802 12.89019797 193.8392334 15.50793457 C190.91047139 16.00061221 188.56440921 16.18552753 185.64086914 16.14285278 C184.40856166 16.15455271 184.40856166 16.15455271 183.15135908 16.16648901 C180.40037572 16.18642208 177.65077373 16.17063977 174.89978027 16.15490723 C172.92687675 16.16168277 170.95397956 16.17058555 168.98109436 16.18145752 C163.62363004 16.2042648 158.26664677 16.19540847 152.90917397 16.17956209 C147.30475179 16.1669106 141.70037104 16.17864112 136.09594727 16.18649292 C126.68396605 16.19559165 117.27218094 16.18359562 107.86022949 16.15979004 C96.97590338 16.13257845 86.09204554 16.14139245 75.20773077 16.16892207 C65.86576244 16.19160568 56.52393515 16.19481684 47.18194818 16.18172872 C41.60103332 16.17393014 36.02033862 16.17290393 30.43943787 16.18941116 C25.19273374 16.20384566 19.94663383 16.19385252 14.69999504 16.16493988 C12.77348268 16.15832366 10.84691954 16.16023587 8.92042732 16.1712532 C6.29212904 16.18489924 3.6657719 16.16780553 1.03759766 16.14285278 C0.27349185 16.15400639 -0.49061395 16.16516 -1.27787447 16.1766516 C-5.23051153 16.10375924 -6.99595478 15.63792862 -10.13800812 13.15965843 C-12.1607666 10.50793457 -12.1607666 10.50793457 -12.7232666 7.44543457 C-11.35171962 0.28291145 -6.38057584 -0.07341641 0 0 Z " fill="#A2B9E2" transform="translate(202.1607666015625,229.4920654296875)"/>
<path d="M0 0 C1.23102584 -0.00913666 1.23102584 -0.00913666 2.48692089 -0.01845789 C5.24069337 -0.03512532 7.99400534 -0.03030679 10.74781799 -0.0255127 C12.7205707 -0.03285083 14.6933191 -0.04143631 16.6660614 -0.05117798 C22.02759741 -0.07342896 27.3889799 -0.07632288 32.75055575 -0.07443047 C37.22388996 -0.07431094 41.69719143 -0.08286785 46.17051655 -0.09120798 C56.72218473 -0.11045476 67.27377379 -0.11332113 77.82545471 -0.10656738 C88.71712028 -0.09992443 99.60844738 -0.12279842 110.50004429 -0.15988111 C119.84621781 -0.19054952 129.19228228 -0.20194128 138.53850514 -0.1980443 C144.12281391 -0.19597395 149.70685931 -0.20150036 155.29112053 -0.22593689 C160.54187517 -0.24815432 165.79207837 -0.24636779 171.04283524 -0.22600937 C172.97097385 -0.22259052 174.89914922 -0.2277259 176.82723808 -0.24199295 C179.45773855 -0.26011595 182.08635438 -0.24748928 184.71679688 -0.22705078 C185.4815848 -0.23956863 186.24637272 -0.25208648 187.03433603 -0.26498365 C190.99021412 -0.19898999 192.75427881 0.26227297 195.89955235 2.74184418 C197.92189026 5.39440918 197.92189026 5.39440918 198.48439026 8.45690918 C197.77378798 12.16783221 196.9404099 13.13978398 193.92189026 15.39440918 C191.0728174 15.78935431 188.60955301 15.93934208 185.76112366 15.90907288 C184.51678881 15.91949117 184.51678881 15.91949117 183.24731588 15.93011993 C180.46343818 15.9484383 177.68040801 15.93811237 174.89649963 15.92785645 C172.90241862 15.93491243 170.90834297 15.94365609 168.91427612 15.95396423 C163.4949083 15.97650266 158.07583191 15.97350824 152.65643501 15.96464276 C148.13577899 15.95954011 143.61517807 15.96681948 139.09452772 15.97411484 C128.43260366 15.99112767 117.77082268 15.98753363 107.10890198 15.9708252 C96.10019003 15.95389671 85.09187437 15.96974545 74.0832057 16.00204808 C64.63852483 16.02871418 55.19396754 16.0360282 45.7492528 16.02753299 C40.10518633 16.02259579 34.46135845 16.02486249 28.81732178 16.04532051 C23.51156041 16.06363113 18.20637084 16.05777543 12.90064049 16.03312111 C10.95112585 16.02809879 9.00156798 16.03163961 7.05208778 16.04426956 C4.39494706 16.06012512 1.73970666 16.04532142 -0.91734314 16.02259827 C-1.6928258 16.03443399 -2.46830846 16.04626972 -3.26729059 16.05846411 C-7.07217164 15.99213994 -8.74740072 15.69911672 -11.58815765 13.08170986 C-13.07810974 10.39440918 -13.07810974 10.39440918 -13.07810974 6.76940918 C-12.07810974 3.39440918 -12.07810974 3.39440918 -10.5204916 1.70812225 C-7.07015494 -0.1477515 -3.82151062 -0.02654528 0 0 Z " fill="#A2B9E2" transform="translate(203.07810974121094,341.6055908203125)"/>
<path d="M0 0 C1.23102584 -0.00913666 1.23102584 -0.00913666 2.48692089 -0.01845789 C5.24069337 -0.03512532 7.99400534 -0.03030679 10.74781799 -0.0255127 C12.7205707 -0.03285083 14.6933191 -0.04143631 16.6660614 -0.05117798 C22.02759741 -0.07342896 27.3889799 -0.07632288 32.75055575 -0.07443047 C37.22388996 -0.07431094 41.69719143 -0.08286785 46.17051655 -0.09120798 C56.72218473 -0.11045476 67.27377379 -0.11332113 77.82545471 -0.10656738 C88.71712028 -0.09992443 99.60844738 -0.12279842 110.50004429 -0.15988111 C119.84621781 -0.19054952 129.19228228 -0.20194128 138.53850514 -0.1980443 C144.12281391 -0.19597395 149.70685931 -0.20150036 155.29112053 -0.22593689 C160.54187517 -0.24815432 165.79207837 -0.24636779 171.04283524 -0.22600937 C172.97097385 -0.22259052 174.89914922 -0.2277259 176.82723808 -0.24199295 C179.45773855 -0.26011595 182.08635438 -0.24748928 184.71679688 -0.22705078 C185.4815848 -0.23956863 186.24637272 -0.25208648 187.03433603 -0.26498365 C190.97326509 -0.19927274 192.77331067 0.28037727 195.9347086 2.70668793 C197.92189026 5.39440918 197.92189026 5.39440918 197.92189026 9.01940918 C196.56289245 13.60602677 196.56289245 13.60602677 193.92189026 15.39440918 C191.1672465 15.69351434 188.6374945 15.8076833 185.88137817 15.78881836 C185.05267603 15.79490946 184.22397389 15.80100057 183.37015957 15.80727625 C180.58331018 15.82397322 177.79691436 15.81912096 175.01002502 15.81433105 C173.01609317 15.82166749 171.02216557 15.83025247 169.02824402 15.83999634 C163.60473492 15.86226552 158.1813775 15.86514033 152.75782895 15.86324883 C148.23474423 15.86312938 143.71169194 15.87168299 139.18861622 15.88002634 C128.52050274 15.89927977 117.85246752 15.90213712 107.18434143 15.89538574 C96.16827821 15.88874263 85.15254963 15.91161587 74.1365543 15.94869947 C64.68765754 15.97935692 55.23886865 15.99076082 45.78992313 15.98686266 C40.14247534 15.98479112 34.49528788 15.99033678 28.84788704 16.01475525 C23.53805483 16.03695457 18.22876817 16.03520136 12.91893387 16.01482773 C10.96780032 16.01140562 9.01663053 16.01655813 7.06554604 16.03081131 C4.40618294 16.04890129 1.74869085 16.03633235 -0.91061401 16.01586914 C-1.68677879 16.02838699 -2.46294357 16.04090484 -3.2626285 16.05380201 C-7.06960688 15.99079033 -8.74571694 15.70056113 -11.58857822 13.08213043 C-13.07810974 10.39440918 -13.07810974 10.39440918 -13.07810974 6.76940918 C-12.07810974 3.39440918 -12.07810974 3.39440918 -10.5204916 1.70812225 C-7.07015494 -0.1477515 -3.82151062 -0.02654528 0 0 Z " fill="#A2B9E2" transform="translate(203.07810974121094,266.6055908203125)"/>
<path d="M0 0 C2.80419754 2.26492878 2.95754338 2.66641227 3.4375 6.4375 C3 10 3 10 1.4375 12.4375 C-2.06718358 14.68409204 -3.86738308 14.599896 -8 14 C-10.64401174 12.85928615 -13.14812573 11.58426436 -15.66796875 10.19140625 C-22.3050851 6.80058467 -30.00162849 7.25238197 -37.0625 9.125 C-47.26370232 12.56810597 -53.8254611 18.72668685 -58.63671875 28.234375 C-60.30124016 32.26305377 -60.50001086 35.99143646 -60.4375 40.3125 C-60.42847656 41.06015625 -60.41945312 41.8078125 -60.41015625 42.578125 C-60.10849974 52.24789196 -56.94196374 58.97134707 -50.29296875 66.01953125 C-42.94301867 72.36778455 -34.91383303 74.3789037 -25.421875 74.2734375 C-18.15870684 73.69304735 -13.03550363 71.19037704 -7.8125 66.1875 C-4.87271367 63.41434124 -4.44365842 63.02181927 -0.1875 62.8125 C3.28521152 64.10625527 4.46334109 64.65550708 6 68 C6.625 70.75 6.625 70.75 6 74 C0.92192877 81.83254017 -6.81037642 87.08795684 -15.7734375 89.48828125 C-27.99794312 91.42703456 -40.10186541 91.37121714 -51 85 C-51.81726563 84.53078125 -52.63453125 84.0615625 -53.4765625 83.578125 C-64.7534055 76.56309892 -72.05548896 66.66395648 -76 54 C-79.08953709 39.67578259 -76.72710833 25.41569229 -69 13 C-61.39118111 2.65676182 -51.1478631 -4.40283504 -38.6953125 -7.58984375 C-24.47344187 -9.75404145 -12.40186408 -7.22064086 0 0 Z " fill="#DC5991" transform="translate(241,40)"/>
<path d="M0 0 C5.87389373 5.29663176 7.62602413 12.57789341 10.046875 19.89453125 C10.50691935 21.25161592 10.96822329 22.60827419 11.4307251 23.96452332 C12.63859507 27.51620835 13.83109399 31.0728558 15.01983643 34.63098145 C16.70410759 39.66309879 18.40895852 44.68828766 20.11212158 49.71403503 C21.01813483 52.38755339 21.91800795 55.06301907 22.81317139 57.7401886 C23.21739319 58.94201279 23.62161499 60.14383698 24.03808594 61.38208008 C24.39384705 62.44542068 24.74960815 63.50876129 25.1161499 64.60432434 C25.78064876 66.92019771 25.78064876 66.92019771 27 68 C27.25198654 67.22183426 27.50397308 66.44366852 27.76359558 65.641922 C30.14563595 58.29510008 32.54221942 50.9532599 34.95511913 43.61652088 C36.19499132 39.84480584 37.4292365 36.07144304 38.65063477 32.29370117 C39.83044066 28.64531353 41.02500788 25.00206501 42.22979164 21.36185265 C42.6859434 19.97497697 43.13682664 18.58635656 43.58223534 17.19599342 C44.20900463 15.24266906 44.85454421 13.2964952 45.50463867 11.35083008 C45.86659836 10.2427449 46.22855804 9.13465973 46.60148621 7.99299622 C48.23597433 4.49498512 50.01829833 2.43940354 53 0 C56.51955419 0 58.84920059 0.36891645 61.9375 2.0625 C64.228306 6.23985212 63.27477904 11.5768269 62.00862122 16.00346375 C61.55149551 17.42773023 61.08153989 18.8479238 60.60083008 20.2644043 C60.34551514 21.04758026 60.0902002 21.83075623 59.82714844 22.63766479 C58.98672802 25.20402692 58.12894463 27.76416007 57.26953125 30.32421875 C56.67554922 32.11664353 56.08219049 33.90927497 55.48942566 35.70210266 C54.24725719 39.44937475 52.99619663 43.19353063 51.73901367 46.93579102 C50.13124843 51.724671 48.54808328 56.52127232 46.97174549 61.32057476 C45.75299829 65.02078662 44.52022127 68.71620745 43.2833004 72.41037941 C42.6938668 74.17704335 42.10902719 75.94524712 41.5289402 77.71500206 C40.71569535 80.18967706 39.88347207 82.65716666 39.04614258 85.1237793 C38.81164902 85.85064438 38.57715546 86.57750946 38.33555603 87.32640076 C36.7311842 91.96603892 34.76878873 94.85670681 31 98 C28.68359375 98.62890625 28.68359375 98.62890625 26.4375 98.5625 C25.69371094 98.56378906 24.94992187 98.56507813 24.18359375 98.56640625 C21.13843023 97.77651589 20.03887583 96.38504039 18 94 C16.68618774 91.08979797 16.68618774 91.08979797 15.52978516 87.6652832 C15.31450668 87.03851685 15.09922821 86.41175049 14.87742615 85.76599121 C14.17013324 83.69786733 13.47964459 81.62453871 12.7890625 79.55078125 C12.29454487 78.09470782 11.79895087 76.63899956 11.30233765 75.18363953 C9.99557128 71.34507269 8.70281751 67.50193172 7.41314697 63.65759277 C6.11919029 59.80748795 4.81333558 55.96142946 3.5078125 52.11523438 C2.02894651 47.75778664 0.55091545 43.40010223 -0.91610718 39.03865051 C-1.14101145 38.37113864 -1.36591572 37.70362677 -1.59763527 37.01588726 C-2.04325586 35.69295006 -2.48797062 34.36970737 -2.9317379 33.04614735 C-4.13223569 29.48627473 -5.37697762 25.94781127 -6.67559814 22.42245483 C-6.95344461 21.6610403 -7.23129108 20.89962576 -7.51755714 20.11513805 C-8.05191624 18.65658593 -8.59403603 17.20084425 -9.14533043 15.74860859 C-10.62497807 11.69536233 -11.42828073 8.31414918 -11 4 C-8.07239315 -0.44996242 -5.11631317 -0.8975988 0 0 Z " fill="#DC5991" transform="translate(275,32)"/>
<path d="M0 0 C1.30797043 -0.01029488 1.30797043 -0.01029488 2.6423645 -0.02079773 C5.52346091 -0.03909282 8.40401425 -0.03522475 11.28515625 -0.02954102 C13.28768084 -0.03410117 15.29020387 -0.03940625 17.29272461 -0.04542542 C21.48915974 -0.05436159 25.68540461 -0.05192719 29.88183594 -0.04199219 C35.26238816 -0.03049572 40.64228477 -0.05072195 46.02275085 -0.07990932 C50.15771665 -0.09824423 54.29252451 -0.09798438 58.42752075 -0.0922718 C60.41147787 -0.09211829 62.39544549 -0.09818736 64.37936401 -0.11056328 C67.15176702 -0.12542212 69.92294804 -0.11483444 72.6953125 -0.09765625 C73.51621368 -0.10732422 74.33711487 -0.11699219 75.18289185 -0.12695312 C78.78296773 -0.08018428 80.91474342 0.08480167 83.85327148 2.2518158 C85.34765625 4.40405273 85.34765625 4.40405273 85.91015625 7.34155273 C85.13931916 11.53833242 83.69506364 12.7901822 80.34765625 15.40405273 C77.45119616 16.11779137 74.6452361 16.07816006 71.67358398 16.03515625 C70.38002487 16.04588921 70.38002487 16.04588921 69.06033325 16.05683899 C66.21676265 16.07371431 63.37477106 16.05433224 60.53125 16.03295898 C58.55257537 16.03378772 56.57390082 16.03624725 54.5952301 16.04026794 C50.45170327 16.04312505 46.30871725 16.0284318 42.1652832 16.00097656 C36.85308175 15.96687178 31.54184591 15.97292029 26.22959805 15.99163914 C22.14520715 16.00220445 18.06104119 15.99327592 13.97667122 15.97825432 C12.01785004 15.97307011 10.0590054 15.97355719 8.1001873 15.97979927 C5.36372168 15.98524668 2.62864173 15.96489286 -0.10766602 15.9375 C-0.91764542 15.94402588 -1.72762482 15.95055176 -2.56214905 15.95727539 C-6.17577162 15.89573158 -8.2368894 15.72071263 -11.15318298 13.49790955 C-13.70295849 9.93667387 -13.1981823 7.7025313 -12.65234375 3.40405273 C-9.24828363 -0.52612425 -4.81954485 -0.02642936 0 0 Z " fill="#DC5790" transform="translate(315.65234375,437.595947265625)"/>
<path d="M0 0 C0.99971329 -0.00478363 1.99942657 -0.00956726 3.0294342 -0.01449585 C5.14000017 -0.01789257 7.2506189 -0.00870618 9.36108398 0.01220703 C12.58371979 0.03894686 15.80286371 0.01246512 19.02539062 -0.01953125 C21.07943474 -0.01622656 23.13347669 -0.00981911 25.1875 0 C26.14704086 -0.01012115 27.10658173 -0.02024231 28.09519958 -0.03067017 C32.57018464 0.04731773 35.70720495 0.21414397 39.28076172 3.07226562 C41.66015625 5.6640625 41.66015625 5.6640625 42.203125 7.796875 C42.08582031 8.45429688 41.96851563 9.11171875 41.84765625 9.7890625 C41.71423828 10.78292969 41.71423828 10.78292969 41.578125 11.796875 C40.14930311 14.70315952 38.61814543 15.31227943 35.66015625 16.6640625 C32.20335696 17.12902603 28.7694116 17.13208504 25.28515625 17.1328125 C24.28307129 17.14042603 23.28098633 17.14803955 22.24853516 17.15588379 C20.13381437 17.16666982 18.01904037 17.16954399 15.90429688 17.16503906 C12.67097246 17.16406576 9.44001383 17.20572604 6.20703125 17.25 C4.14974452 17.2552065 2.09244956 17.2578952 0.03515625 17.2578125 C-1.41189697 17.2824054 -1.41189697 17.2824054 -2.88818359 17.30749512 C-7.52292521 17.25981004 -9.6564838 17.18044568 -13.44921875 14.31445312 C-15.33984375 11.6640625 -15.33984375 11.6640625 -15.96484375 8.6640625 C-14.14924428 -0.05081497 -7.42164151 -0.07811804 0 0 Z " fill="#A3BAE2" transform="translate(126.33984375,378.3359375)"/>
<path d="M0 0 C0.88141663 -0.01606293 1.76283325 -0.03212585 2.67095947 -0.04867554 C6.7088545 -0.0931645 10.74658503 -0.13420159 14.78466797 -0.15722656 C16.912709 -0.17377331 19.04069475 -0.20104627 21.16845703 -0.23925781 C24.23857422 -0.29410688 27.30738809 -0.3159143 30.37792969 -0.33056641 C31.79854706 -0.36457047 31.79854706 -0.36457047 33.24786377 -0.39926147 C37.70880585 -0.38504057 40.78682516 -0.25903692 44.35083008 2.59228516 C46.73730469 5.19287109 46.73730469 5.19287109 47.28027344 7.32568359 C47.16296875 7.98310547 47.04566406 8.64052734 46.92480469 9.31787109 C46.79138672 10.31173828 46.79138672 10.31173828 46.65527344 11.32568359 C45.22645155 14.23196811 43.69529387 14.84108803 40.73730469 16.19287109 C37.2805054 16.65783462 33.84656004 16.66089363 30.36230469 16.66162109 C29.36021973 16.66923462 28.35813477 16.67684814 27.32568359 16.68469238 C25.2109628 16.69547841 23.09618881 16.69835259 20.98144531 16.69384766 C17.7481209 16.69287435 14.51716227 16.73453464 11.28417969 16.77880859 C9.22689296 16.78401509 7.169598 16.7867038 5.11230469 16.78662109 C3.66525146 16.81121399 3.66525146 16.81121399 2.18896484 16.83630371 C-2.44422846 16.78863457 -4.58084679 16.70661016 -8.37597656 13.84716797 C-10.26269531 11.19287109 -10.26269531 11.19287109 -10.82519531 8.13037109 C-10.14448016 4.57552529 -9.06197072 3.41582509 -6.26269531 1.19287109 C-3.95394194 0.03849441 -2.57072076 0.04255542 0 0 Z " fill="#A3BAE2" transform="translate(121.2626953125,303.80712890625)"/>
<path d="M0 0 C1.53642151 -0.00929787 1.53642151 -0.00929787 3.10388184 -0.01878357 C5.26569673 -0.02587557 7.4275663 -0.0227186 9.58935547 -0.01000977 C12.89522819 0.00386001 16.1982723 -0.03023069 19.50390625 -0.06835938 C21.60677153 -0.06931056 23.70964034 -0.06745177 25.8125 -0.0625 C27.29236389 -0.08238731 27.29236389 -0.08238731 28.80212402 -0.10267639 C33.46791519 -0.03942116 35.71315964 0.05948493 39.56835938 2.87915039 C41.40625 5.56640625 41.40625 5.56640625 41.40625 9.19140625 C40.41911277 12.5229944 40.07356451 13.54541149 37.40625 15.56640625 C35.21217346 15.96081543 35.21217346 15.96081543 32.63110352 15.98632812 C31.17928429 16.01019592 31.17928429 16.01019592 29.69813538 16.0345459 C28.13246071 16.03484802 28.13246071 16.03484802 26.53515625 16.03515625 C24.92434425 16.04657654 24.92434425 16.04657654 23.2809906 16.05822754 C21.00888394 16.06903771 18.73672754 16.07187794 16.46459961 16.06738281 C12.98532338 16.06641088 9.5082543 16.10801641 6.02929688 16.15234375 C3.82292127 16.15755084 1.61653799 16.16023894 -0.58984375 16.16015625 C-1.63160263 16.17655151 -2.67336151 16.19294678 -3.74668884 16.20983887 C-10.94413505 16.14086556 -10.94413505 16.14086556 -14.24633789 13.22070312 C-15.90428605 9.95467443 -16.28488826 8.17568383 -15.59375 4.56640625 C-11.16615131 -0.511597 -6.2643674 -0.03149321 0 0 Z " fill="#A2B9E2" transform="translate(126.59375,341.43359375)"/>
<path d="M0 0 C0.92453476 -0.01591187 1.84906952 -0.03182373 2.80162048 -0.04821777 C4.2892263 -0.0485199 4.2892263 -0.0485199 5.80688477 -0.04882812 C6.83258072 -0.05644165 7.85827667 -0.06405518 8.91505432 -0.07189941 C11.08283048 -0.08269795 13.25065865 -0.08555453 15.41845703 -0.08105469 C18.73306131 -0.08008259 22.04534921 -0.12170391 25.35961914 -0.16601562 C27.46703619 -0.17122286 29.57446128 -0.17391081 31.68188477 -0.17382812 C32.67159775 -0.19022339 33.66131073 -0.20661865 34.68101501 -0.22351074 C39.35819963 -0.17659495 41.60826306 -0.09305741 45.47509766 2.73046875 C47.31079102 5.41992188 47.31079102 5.41992188 47.31079102 9.04492188 C46.32365379 12.37651003 45.97810553 13.39892711 43.31079102 15.41992188 C41.11671448 15.81433105 41.11671448 15.81433105 38.53564453 15.83984375 C37.0838253 15.86371155 37.0838253 15.86371155 35.60267639 15.88806152 C34.03700172 15.88836365 34.03700172 15.88836365 32.43969727 15.88867188 C30.82888527 15.90009216 30.82888527 15.90009216 29.18553162 15.91174316 C26.91342495 15.92255334 24.64126856 15.92539357 22.36914062 15.92089844 C18.88986439 15.9199265 15.41279532 15.96153203 11.93383789 16.00585938 C9.72746229 16.01106647 7.52107901 16.01375457 5.31469727 16.01367188 C4.27293839 16.03006714 3.2311795 16.0464624 2.15785217 16.06335449 C-5.0207591 15.99456169 -5.0207591 15.99456169 -8.37695312 13.109375 C-10.17981657 9.41442734 -9.84528398 7.321675 -8.68920898 3.41992188 C-5.85395987 0.72044374 -3.87230996 0.04020007 0 0 Z " fill="#A2B9E2" transform="translate(120.689208984375,266.580078125)"/>
<path d="M0 0 C1.07245972 -0.0038269 2.14491943 -0.00765381 3.24987793 -0.01159668 C5.51604146 -0.01431716 7.78223631 -0.00694653 10.04833984 0.00976562 C13.51861528 0.03117206 16.98682027 0.00996725 20.45703125 -0.015625 C22.65885874 -0.01298175 24.86068494 -0.00785683 27.0625 0 C28.10112183 -0.00809692 29.13974365 -0.01619385 30.20983887 -0.02453613 C37.38513532 0.06894432 37.38513532 0.06894432 40.69506836 2.43725586 C42.21047394 4.81212041 42.48265077 5.82882536 42.09375 8.59375 C42.02285156 9.26535156 41.95195312 9.93695313 41.87890625 10.62890625 C40.55012371 13.61101268 39.00693259 14.17542397 36.03125 15.53125 C32.57439862 15.99594607 29.14052831 15.99927253 25.65625 16 C24.65416504 16.00761353 23.65208008 16.01522705 22.61962891 16.02307129 C20.50490812 16.03385732 18.39013412 16.03673149 16.27539062 16.03222656 C13.04206621 16.03125326 9.81110758 16.07291354 6.578125 16.1171875 C4.52083827 16.122394 2.46354331 16.1250827 0.40625 16.125 C-1.04080322 16.1495929 -1.04080322 16.1495929 -2.51708984 16.17468262 C-7.15028314 16.12701347 -9.28690148 16.04498907 -13.08203125 13.18554688 C-14.96875 10.53125 -14.96875 10.53125 -15.53125 7.46875 C-13.91519491 -0.97064883 -7.07208409 -0.0551328 0 0 Z " fill="#A2B9E2" transform="translate(125.96875,229.46875)"/>
</svg>
